<svg width="576" height="403" viewBox="0 0 576 403" fill="none" xmlns="http://www.w3.org/2000/svg">
<path d="M292.25 4.00003C294.25 1.50003 308.75 3.05176e-05 308.75 3.05176e-05C308.75 3.05176e-05 298.25 16.211 296.25 19.5C294.25 22.7891 292.25 25.711 290.5 30C288.75 34.2891 286 43 286 43L282 41C282 41 283.25 31.7891 284.25 25.5C285.25 19.211 286.75 15.7891 287.25 14.5C287.75 13.211 290.25 6.50003 292.25 4.00003Z" fill="#307450"/>
<path d="M339.23 97C339.23 141 299 152 284.23 152C269.459 152 232.23 136 232.23 97C232.23 54.5001 245 23.5 284.23 42C327 21 339.23 56 339.23 97Z" fill="#52C889"/>
<path d="M377 248.716C377 321.743 310.076 340 285.505 340C260.934 340 199 313.445 199 248.716C199 178.179 220.244 126.728 285.505 157.433C356.655 122.579 377 180.669 377 248.716Z" fill="#52C889"/>
<path d="M354 245.946C354 301.189 303.243 315 284.608 315C265.972 315 219 294.912 219 245.946C219 192.586 235.112 153.665 284.608 176.892C338.57 150.526 354 194.469 354 245.946Z" fill="#CDCDCD"/>
<ellipse rx="36.1069" ry="27.537" transform="matrix(0.992044 -0.125895 0.0865331 0.996249 286.112 99.7207)" fill="black"/>
<ellipse rx="39.3983" ry="27.4369" transform="matrix(0.989889 -0.141842 0.0922648 0.995734 287.667 97.0957)" fill="#52C889"/>
<ellipse rx="8.07291" ry="6.15681" transform="matrix(-0.983556 0.180604 -0.141535 -0.989933 261.01 60.6318)" fill="black"/>
<ellipse rx="8.80881" ry="6.13443" transform="matrix(-0.980522 0.196407 -0.147229 -0.989102 260.695 61.2371)" fill="#52C889"/>
<ellipse rx="8.07291" ry="6.15681" transform="matrix(-0.983556 0.180604 -0.141535 -0.989933 305.01 60.6318)" fill="black"/>
<ellipse rx="8.80881" ry="6.13443" transform="matrix(-0.980522 0.196407 -0.147229 -0.989102 304.695 61.2371)" fill="#52C889"/>
<path d="M278.323 101.776C278.2 97.9452 281.119 88.0627 284.934 87.9544C288.653 87.8488 291.228 98.04 291.349 101.776C291.472 105.593 288.957 106.978 285.157 107.086C281.264 107.197 278.45 105.686 278.323 101.776Z" fill="#307450"/>
<path d="M254.096 71.929C253.706 67.2369 256.795 62.8193 261.467 62.4491C266.024 62.088 269.484 66.1035 269.864 70.6796C270.253 75.3546 267.62 80.0886 262.965 80.4575C258.196 80.8354 254.495 76.7177 254.096 71.929Z" fill="white"/>
<path d="M256.999 74.701C256.747 71.6719 258.741 68.8201 261.757 68.581C264.699 68.3479 266.932 70.9402 267.178 73.8944C267.429 76.9124 265.729 79.9685 262.724 80.2066C259.646 80.4506 257.256 77.7924 256.999 74.701Z" fill="black"/>
<path d="M298.096 71.929C297.706 67.2369 300.795 62.8193 305.467 62.4491C310.024 62.088 313.484 66.1035 313.864 70.6796C314.253 75.3546 311.62 80.0886 306.965 80.4575C302.196 80.8354 298.495 76.7177 298.096 71.929Z" fill="white"/>
<path d="M300.999 74.701C300.747 71.6719 302.741 68.8201 305.757 68.581C308.699 68.3479 310.932 70.9402 311.178 73.8944C311.429 76.9124 309.729 79.9685 306.724 80.2066C303.646 80.4506 301.256 77.7924 300.999 74.701Z" fill="black"/>
<ellipse cx="288.105" cy="389.977" rx="89" ry="12.1828" transform="rotate(0.51176 288.105 389.977)" fill="black" fill-opacity="0.41"/>
<path d="M426.951 115.134C449.912 112.681 511.243 129.711 520.213 133.116C529.183 136.522 543.125 148.392 551.183 158.115C559.241 167.838 575.123 194.362 575.123 194.362C575.123 194.362 532.122 203.984 522.688 204.566C513.255 205.148 499.446 204.926 476.726 202.211C454.005 199.497 436.381 195.41 429.699 194.467C423.017 193.524 399.967 187.068 393.736 184.86C387.505 182.651 375.597 179.365 369.776 176.809C363.956 174.254 356.455 169.68 356.455 169.68L352.46 159.791C352.46 159.791 366.012 142.959 371.401 138.272C376.79 133.585 378.937 132.542 385.86 128.398C392.783 124.253 403.99 117.587 426.951 115.134Z" fill="#3FB978"/>
<ellipse cx="356.538" cy="168.418" rx="2.61587" ry="14.5741" transform="rotate(-35.1962 356.538 168.418)" fill="black" fill-opacity="0.42"/>
<path d="M148.461 115.134C125.5 112.681 64.1705 129.711 55.2006 133.116C46.2307 136.522 32.2887 148.392 24.231 158.115C16.1732 167.838 0.291842 194.362 0.291842 194.362C0.291842 194.362 43.2922 203.984 52.7252 204.566C62.1582 205.148 75.9668 204.926 98.6869 202.211C121.407 199.497 139.031 195.41 145.712 194.467C152.394 193.524 175.444 187.068 181.675 184.86C187.906 182.651 199.814 179.365 205.634 176.809C211.455 174.254 218.955 169.68 218.955 169.68L222.951 159.791C222.951 159.791 209.398 142.959 204.009 138.272C198.62 133.585 196.474 132.542 189.551 128.398C182.628 124.253 171.421 117.587 148.461 115.134Z" fill="#3FB978"/>
<ellipse rx="2.61583" ry="14.574" transform="matrix(-0.817178 -0.576385 -0.57637 0.817189 218.872 168.418)" fill="black" fill-opacity="0.42"/>
<path d="M53.2165 142.152C56.6023 142.867 59.6605 145.161 61.508 148.138C63.271 150.979 62.9749 154.539 62.9897 157.9C63.0029 160.918 62.8521 163.926 61.5891 166.657C60.3148 169.412 58.1869 171.551 55.817 173.409C53.2072 175.455 50.4895 177.586 47.2132 177.927C43.7386 178.288 40.1801 177.3 37.2669 175.337C34.3348 173.362 32.3737 170.274 30.9762 166.989C29.5727 163.689 28.4576 160.058 29.2805 156.562C30.0835 153.149 32.7222 150.566 35.3694 148.319C37.7589 146.292 40.7025 145.388 43.6479 144.37C46.8095 143.277 49.9472 141.463 53.2165 142.152Z" fill="#52C889"/>
<path d="M467.278 158.621C471.285 159.842 475.021 162.19 477.396 165.646C479.737 169.053 479.811 173.353 480.231 177.469C480.667 181.746 481.886 186.295 479.891 190.101C477.884 193.931 473.673 196.02 469.666 197.629C465.958 199.119 461.982 199.111 457.993 198.897C453.905 198.679 449.692 198.558 446.226 196.375C442.598 194.09 439.872 190.541 438.35 186.527C436.815 182.48 436.588 178.011 437.673 173.821C438.739 169.708 441.114 166.009 444.37 163.286C447.477 160.689 451.486 159.766 455.451 158.959C459.396 158.155 463.427 157.447 467.278 158.621Z" fill="#52C889"/>
<path d="M99.7173 164.085C103.379 164.328 106.947 165.268 109.928 167.4C113.069 169.647 116.038 172.56 116.834 176.327C117.617 180.032 115.451 183.531 114.083 187.063C112.699 190.635 111.889 194.647 108.836 196.974C105.656 199.398 101.369 200.559 97.4501 199.738C93.7375 198.96 91.6428 195.307 88.8215 192.781C86.1505 190.39 82.4902 188.778 81.399 185.371C80.2855 181.895 81.7167 178.214 83.0694 174.824C84.4212 171.435 86.0466 167.999 89.1201 166.016C92.2095 164.023 96.0443 163.84 99.7173 164.085Z" fill="#52C889"/>
<path d="M515.784 140.298C521.54 139.679 528.228 139.656 532.082 143.955C536.041 148.371 535.1 155.039 534.249 160.896C533.421 166.599 532.457 173.236 527.416 176.07C522.595 178.781 517.03 174.822 511.626 173.615C507.115 172.608 502.008 173.084 498.877 169.699C495.569 166.122 494.243 160.815 495.425 156.099C496.515 151.746 501.033 149.669 504.588 146.911C508.145 144.15 511.298 140.78 515.784 140.298Z" fill="#52C889"/>
<path d="M167.319 126.779C173.871 131.639 180.894 137.432 180.999 145.58C181.103 153.653 174.353 159.724 167.804 164.46C161.951 168.692 154.915 171.03 147.84 169.559C140.824 168.1 135.449 163.101 131.763 156.966C127.674 150.159 124.243 142.292 126.985 134.842C129.919 126.872 137.274 121.003 145.614 119.336C153.506 117.758 160.858 121.988 167.319 126.779Z" fill="#52C889"/>
<path d="M418.767 130.805C422.894 134.609 427.158 138.506 427.742 144.155C428.467 151.179 427.978 159.688 422.139 163.463C416.41 167.167 409.032 163.432 403.092 160.092C398.776 157.665 396.849 152.985 395.121 148.27C393.479 143.792 392.06 139.147 393.787 134.703C395.844 129.41 399.394 123.96 404.901 123.1C410.372 122.246 414.657 127.016 418.767 130.805Z" fill="#52C889"/>
</svg>
